<svg width="40" height="36" viewBox="0 0 40 36" fill="none" xmlns="http://www.w3.org/2000/svg">
<path d="M0 6C0 2.68629 2.68629 0 6 0H34C37.3137 0 40 2.68629 40 6V30C40 33.3137 37.3137 36 34 36H6C2.68629 36 0 33.3137 0 30V6Z" fill="white"/>
<path d="M17.7952 25.5C18.3828 26.0186 19.1547 26.3333 20.0001 26.3333C20.8454 26.3333 21.6173 26.0186 22.2049 25.5M25.0001 14.6666C25.0001 13.3405 24.4733 12.0688 23.5356 11.1311C22.5979 10.1934 21.3261 9.66663 20.0001 9.66663C18.674 9.66663 17.4022 10.1934 16.4645 11.1311C15.5268 12.0688 15.0001 13.3405 15.0001 14.6666C15.0001 17.2418 14.3504 19.0049 13.6248 20.1711C13.0127 21.1549 12.7066 21.6467 12.7178 21.7839C12.7303 21.9359 12.7624 21.9938 12.8849 22.0846C12.9954 22.1666 13.4939 22.1666 14.4908 22.1666H25.5093C26.5062 22.1666 27.0047 22.1666 27.1152 22.0846C27.2377 21.9938 27.2699 21.9359 27.2823 21.7839C27.2935 21.6467 26.9875 21.1549 26.3753 20.1711C25.6497 19.0049 25.0001 17.2418 25.0001 14.6666Z" stroke="#222222" stroke-width="1.66667" stroke-linecap="round" stroke-linejoin="round"/>
</svg>
