<svg width="40" height="36" viewBox="0 0 40 36" fill="none" xmlns="http://www.w3.org/2000/svg">
<path d="M0 6C0 2.68629 2.68629 0 6 0H34C37.3137 0 40 2.68629 40 6V30C40 33.3137 37.3137 36 34 36H6C2.68629 36 0 33.3137 0 30V6Z" fill="white"/>
<path d="M14.1666 14.5C14.1666 13.0999 14.1666 12.3998 14.4391 11.865C14.6788 11.3946 15.0612 11.0122 15.5316 10.7725C16.0664 10.5 16.7665 10.5 18.1666 10.5H21.8333C23.2334 10.5 23.9335 10.5 24.4683 10.7725C24.9387 11.0122 25.3211 11.3946 25.5608 11.865C25.8333 12.3998 25.8333 13.0999 25.8333 14.5V25.5L20 22.1667L14.1666 25.5V14.5Z" stroke="#222222" stroke-width="1.66667" stroke-linecap="round" stroke-linejoin="round"/>
</svg>
