<svg width="20" height="20" viewBox="0 0 20 20" fill="none" xmlns="http://www.w3.org/2000/svg">
<path d="M6.25024 8.75H6.25858M10.0002 8.75H10.0086M13.7502 8.75H13.7586M5.83358 15V16.9463C5.83358 17.3903 5.83358 17.6123 5.9246 17.7263C6.00376 17.8255 6.1238 17.8832 6.25069 17.8831C6.3966 17.8829 6.56997 17.7442 6.91671 17.4668L8.90459 15.8765C9.31067 15.5517 9.51372 15.3892 9.73982 15.2737C9.94041 15.1712 10.1539 15.0963 10.3746 15.051C10.6233 15 10.8833 15 11.4034 15H13.5002C14.9004 15 15.6004 15 16.1352 14.7275C16.6056 14.4878 16.9881 14.1054 17.2278 13.635C17.5002 13.1002 17.5002 12.4001 17.5002 11V6.5C17.5002 5.09987 17.5002 4.3998 17.2278 3.86502C16.9881 3.39462 16.6056 3.01217 16.1352 2.77248C15.6004 2.5 14.9004 2.5 13.5002 2.5H6.50024C5.10011 2.5 4.40005 2.5 3.86527 2.77248C3.39486 3.01217 3.01241 3.39462 2.77273 3.86502C2.50024 4.3998 2.50024 5.09987 2.50024 6.5V11.6667C2.50024 12.4416 2.50024 12.8291 2.58543 13.147C2.8166 14.0098 3.49047 14.6836 4.3532 14.9148C4.67111 15 5.0586 15 5.83358 15ZM6.66691 8.75C6.66691 8.98012 6.48036 9.16667 6.25024 9.16667C6.02013 9.16667 5.83358 8.98012 5.83358 8.75C5.83358 8.51988 6.02013 8.33333 6.25024 8.33333C6.48036 8.33333 6.66691 8.51988 6.66691 8.75ZM10.4169 8.75C10.4169 8.98012 10.2304 9.16667 10.0002 9.16667C9.77013 9.16667 9.58358 8.98012 9.58358 8.75C9.58358 8.51988 9.77013 8.33333 10.0002 8.33333C10.2304 8.33333 10.4169 8.51988 10.4169 8.75ZM14.1669 8.75C14.1669 8.98012 13.9804 9.16667 13.7502 9.16667C13.5201 9.16667 13.3336 8.98012 13.3336 8.75C13.3336 8.51988 13.5201 8.33333 13.7502 8.33333C13.9804 8.33333 14.1669 8.51988 14.1669 8.75Z" stroke="#222222" stroke-width="1.66667" stroke-linecap="round" stroke-linejoin="round"/>
</svg>
