<svg width="40" height="40" viewBox="0 0 40 40" fill="none" xmlns="http://www.w3.org/2000/svg">
<g clip-path="url(#clip0_428_2403)">
<path d="M0 20C0 8.95431 8.95431 0 20 0C31.0457 0 40 8.95431 40 20C40 31.0457 31.0457 40 20 40C8.95431 40 0 31.0457 0 20Z" fill="#004B23"/>
<path d="M0.375 20C0.375 9.16141 9.16141 0.375 20 0.375C30.8386 0.375 39.625 9.16141 39.625 20C39.625 30.8386 30.8386 39.625 20 39.625C9.16141 39.625 0.375 30.8386 0.375 20Z" stroke="black" stroke-opacity="0.08" stroke-width="0.75"/>
<g opacity="0.5" filter="url(#filter0_f_428_2403)">
<path d="M92.9025 34.5807C92.9238 34.5944 92.9241 34.6066 92.9027 34.6171L92.9025 34.5807C91.6298 33.7602 15.1907 27.2311 -53.0783 21.5676L-118.565 44.5445L-118.87 16.1652C-100.438 17.6623 -77.2712 19.5606 -53.0783 21.5676L92.4897 -29.5065L92.9025 34.5807Z" fill="#70E000"/>
</g>
<g clip-path="url(#clip1_428_2403)">
<path d="M13.75 28.3334V24.1667M13.75 15.8334V11.6667M11.6666 13.7501H15.8333M11.6666 26.2501H15.8333M20.8333 12.5001L19.3881 16.2575C19.1531 16.8685 19.0356 17.174 18.8529 17.431C18.691 17.6587 18.492 17.8577 18.2642 18.0197C18.0072 18.2024 17.7017 18.3199 17.0907 18.5549L13.3333 20.0001L17.0907 21.4452C17.7017 21.6802 18.0072 21.7977 18.2642 21.9805C18.492 22.1424 18.691 22.3414 18.8529 22.5692C19.0356 22.8262 19.1531 23.1317 19.3881 23.7427L20.8333 27.5001L22.2784 23.7427C22.5135 23.1317 22.631 22.8262 22.8137 22.5692C22.9756 22.3414 23.1746 22.1424 23.4024 21.9805C23.6594 21.7977 23.9649 21.6802 24.5759 21.4452L28.3333 20.0001L24.5759 18.5549C23.9649 18.3199 23.6594 18.2024 23.4024 18.0197C23.1746 17.8577 22.9756 17.6587 22.8137 17.431C22.631 17.174 22.5135 16.8685 22.2784 16.2575L20.8333 12.5001Z" stroke="white" stroke-width="1.66667" stroke-linecap="round" stroke-linejoin="round"/>
</g>
</g>
<defs>
<filter id="filter0_f_428_2403" x="-182.44" y="-93.0767" width="338.929" height="201.191" filterUnits="userSpaceOnUse" color-interpolation-filters="sRGB">
<feFlood flood-opacity="0" result="BackgroundImageFix"/>
<feBlend mode="normal" in="SourceGraphic" in2="BackgroundImageFix" result="shape"/>
<feGaussianBlur stdDeviation="31.785" result="effect1_foregroundBlur_428_2403"/>
</filter>
<clipPath id="clip0_428_2403">
<path d="M0 20C0 8.95431 8.95431 0 20 0C31.0457 0 40 8.95431 40 20C40 31.0457 31.0457 40 20 40C8.95431 40 0 31.0457 0 20Z" fill="white"/>
</clipPath>
<clipPath id="clip1_428_2403">
<rect width="20" height="20" fill="white" transform="translate(10 10)"/>
</clipPath>
</defs>
</svg>
