<svg width="40" height="36" viewBox="0 0 40 36" fill="none" xmlns="http://www.w3.org/2000/svg">
<path d="M6.10352e-05 6C6.10352e-05 2.68629 2.68635 0 6.00006 0H34.0001C37.3138 0 40.0001 2.68629 40.0001 6V30C40.0001 33.3137 37.3138 36 34.0001 36H6.00006C2.68635 36 6.10352e-05 33.3137 6.10352e-05 30V6Z" fill="white"/>
<path d="M16.2502 16.75H16.2586M20.0002 16.75H20.0086M23.7502 16.75H23.7586M15.8336 23V24.9463C15.8336 25.3903 15.8336 25.6123 15.9246 25.7263C16.0038 25.8255 16.1238 25.8832 16.2507 25.8831C16.3966 25.8829 16.57 25.7442 16.9167 25.4668L18.9046 23.8765C19.3107 23.5517 19.5137 23.3892 19.7398 23.2737C19.9404 23.1712 20.1539 23.0963 20.3746 23.051C20.6233 23 20.8833 23 21.4034 23H23.5002C24.9004 23 25.6004 23 26.1352 22.7275C26.6056 22.4878 26.9881 22.1054 27.2278 21.635C27.5002 21.1002 27.5002 20.4001 27.5002 19V14.5C27.5002 13.0999 27.5002 12.3998 27.2278 11.865C26.9881 11.3946 26.6056 11.0122 26.1352 10.7725C25.6004 10.5 24.9004 10.5 23.5002 10.5H16.5002C15.1001 10.5 14.4 10.5 13.8653 10.7725C13.3949 11.0122 13.0124 11.3946 12.7727 11.865C12.5002 12.3998 12.5002 13.0999 12.5002 14.5V19.6667C12.5002 20.4416 12.5002 20.8291 12.5854 21.147C12.8166 22.0098 13.4905 22.6836 14.3532 22.9148C14.6711 23 15.0586 23 15.8336 23ZM16.6669 16.75C16.6669 16.9801 16.4804 17.1667 16.2502 17.1667C16.0201 17.1667 15.8336 16.9801 15.8336 16.75C15.8336 16.5199 16.0201 16.3333 16.2502 16.3333C16.4804 16.3333 16.6669 16.5199 16.6669 16.75ZM20.4169 16.75C20.4169 16.9801 20.2304 17.1667 20.0002 17.1667C19.7701 17.1667 19.5836 16.9801 19.5836 16.75C19.5836 16.5199 19.7701 16.3333 20.0002 16.3333C20.2304 16.3333 20.4169 16.5199 20.4169 16.75ZM24.1669 16.75C24.1669 16.9801 23.9804 17.1667 23.7502 17.1667C23.5201 17.1667 23.3336 16.9801 23.3336 16.75C23.3336 16.5199 23.5201 16.3333 23.7502 16.3333C23.9804 16.3333 24.1669 16.5199 24.1669 16.75Z" stroke="#222222" stroke-width="1.66667" stroke-linecap="round" stroke-linejoin="round"/>
</svg>
