<svg width="52" height="52" viewBox="0 0 52 52" fill="none" xmlns="http://www.w3.org/2000/svg">
<g filter="url(#filter0_dii_380_14566)">
<path d="M2 11C2 5.47715 6.47715 1 12 1H40C45.5229 1 50 5.47715 50 11V39C50 44.5229 45.5228 49 40 49H12C6.47715 49 2 44.5228 2 39V11Z" fill="white"/>
<path d="M2.5 11C2.5 5.75329 6.75329 1.5 12 1.5H40C45.2467 1.5 49.5 5.75329 49.5 11V39C49.5 44.2467 45.2467 48.5 40 48.5H12C6.75329 48.5 2.5 44.2467 2.5 39V11Z" stroke="#E4E7EC"/>
<path d="M26 25H26.005M31 25H31.005M21 25H21.005M19.2 20H32.8C33.9201 20 34.4802 20 34.908 20.218C35.2843 20.4097 35.5903 20.7157 35.782 21.092C36 21.5198 36 22.0799 36 23.2V26.8C36 27.9201 36 28.4802 35.782 28.908C35.5903 29.2843 35.2843 29.5903 34.908 29.782C34.4802 30 33.9201 30 32.8 30H19.2C18.0799 30 17.5198 30 17.092 29.782C16.7157 29.5903 16.4097 29.2843 16.218 28.908C16 28.4802 16 27.9201 16 26.8V23.2C16 22.0799 16 21.5198 16.218 21.092C16.4097 20.7157 16.7157 20.4097 17.092 20.218C17.5198 20 18.0799 20 19.2 20ZM26.25 25C26.25 25.1381 26.1381 25.25 26 25.25C25.8619 25.25 25.75 25.1381 25.75 25C25.75 24.8619 25.8619 24.75 26 24.75C26.1381 24.75 26.25 24.8619 26.25 25ZM31.25 25C31.25 25.1381 31.1381 25.25 31 25.25C30.8619 25.25 30.75 25.1381 30.75 25C30.75 24.8619 30.8619 24.75 31 24.75C31.1381 24.75 31.25 24.8619 31.25 25ZM21.25 25C21.25 25.1381 21.1381 25.25 21 25.25C20.8619 25.25 20.75 25.1381 20.75 25C20.75 24.8619 20.8619 24.75 21 24.75C21.1381 24.75 21.25 24.8619 21.25 25Z" stroke="#344054" stroke-width="2" stroke-linecap="round" stroke-linejoin="round"/>
</g>
<defs>
<filter id="filter0_dii_380_14566" x="0" y="0" width="52" height="52" filterUnits="userSpaceOnUse" color-interpolation-filters="sRGB">
<feFlood flood-opacity="0" result="BackgroundImageFix"/>
<feColorMatrix in="SourceAlpha" type="matrix" values="0 0 0 0 0 0 0 0 0 0 0 0 0 0 0 0 0 0 127 0" result="hardAlpha"/>
<feOffset dy="1"/>
<feGaussianBlur stdDeviation="1"/>
<feComposite in2="hardAlpha" operator="out"/>
<feColorMatrix type="matrix" values="0 0 0 0 0.0627451 0 0 0 0 0.0941176 0 0 0 0 0.156863 0 0 0 0.05 0"/>
<feBlend mode="normal" in2="BackgroundImageFix" result="effect1_dropShadow_380_14566"/>
<feBlend mode="normal" in="SourceGraphic" in2="effect1_dropShadow_380_14566" result="shape"/>
<feColorMatrix in="SourceAlpha" type="matrix" values="0 0 0 0 0 0 0 0 0 0 0 0 0 0 0 0 0 0 127 0" result="hardAlpha"/>
<feOffset dy="-2"/>
<feComposite in2="hardAlpha" operator="arithmetic" k2="-1" k3="1"/>
<feColorMatrix type="matrix" values="0 0 0 0 0.0627451 0 0 0 0 0.0941176 0 0 0 0 0.156863 0 0 0 0.05 0"/>
<feBlend mode="normal" in2="shape" result="effect2_innerShadow_380_14566"/>
<feColorMatrix in="SourceAlpha" type="matrix" values="0 0 0 0 0 0 0 0 0 0 0 0 0 0 0 0 0 0 127 0" result="hardAlpha"/>
<feMorphology radius="1" operator="erode" in="SourceAlpha" result="effect3_innerShadow_380_14566"/>
<feOffset/>
<feComposite in2="hardAlpha" operator="arithmetic" k2="-1" k3="1"/>
<feColorMatrix type="matrix" values="0 0 0 0 0.0627451 0 0 0 0 0.0941176 0 0 0 0 0.156863 0 0 0 0.18 0"/>
<feBlend mode="normal" in2="effect2_innerShadow_380_14566" result="effect3_innerShadow_380_14566"/>
</filter>
</defs>
</svg>
