<svg width="20" height="20" viewBox="0 0 20 20" fill="none" xmlns="http://www.w3.org/2000/svg">
<path d="M13.714 13.7139C13.4249 13.4147 13.4005 12.9469 13.659 12.6191C14.3854 11.6975 14.8378 10.59 14.9642 9.42329C15.0906 8.25661 14.886 7.07792 14.3738 6.02209C13.8617 4.96626 13.0626 4.07596 12.068 3.45307C11.0735 2.83018 9.92365 2.49988 8.75016 2.49996M13.714 13.7139L8.75016 2.49996M13.714 13.7139C13.4148 13.4248 12.9471 13.4004 12.6193 13.6588C11.8365 14.2757 10.9176 14.6964 9.93915 14.8859C9.546 14.9621 9.14783 15 8.75009 15C10.4077 15 11.9974 14.3415 13.1695 13.1694C14.3416 11.9973 15.0001 10.4076 15.0001 8.74996C15.0001 7.09236 14.3416 5.50264 13.1695 4.33054C11.9974 3.15846 10.4077 2.49998 8.75016 2.49996M13.714 13.7139L8.75016 2.49996M8.75009 2.49996C8.74847 2.49996 8.74685 2.49996 8.74523 2.49996L8.75009 2.49996Z" stroke="#222222" stroke-width="1.66667" stroke-linecap="round" stroke-linejoin="round"/>
</svg>
