<svg width="20" height="20" viewBox="0 0 20 20" fill="none" xmlns="http://www.w3.org/2000/svg">
<g clip-path="url(#clip0_428_2667)">
<path d="M3.75002 18.3334V14.1667M3.75002 5.83341V1.66675M1.66669 3.75008H5.83335M1.66669 16.2501H5.83335M10.8334 2.50008L9.38821 6.25747C9.1532 6.86849 9.03569 7.174 8.85296 7.43099C8.69101 7.65875 8.49202 7.85774 8.26426 8.01969C8.00728 8.20242 7.70176 8.31992 7.09074 8.55493L3.33335 10.0001L7.09074 11.4452C7.70176 11.6802 8.00728 11.7977 8.26426 11.9805C8.49202 12.1424 8.69101 12.3414 8.85296 12.5692C9.03569 12.8262 9.1532 13.1317 9.38821 13.7427L10.8334 17.5001L12.2785 13.7427C12.5135 13.1317 12.631 12.8262 12.8137 12.5692C12.9757 12.3414 13.1747 12.1424 13.4024 11.9805C13.6594 11.7977 13.9649 11.6802 14.576 11.4452L18.3334 10.0001L14.576 8.55493C13.9649 8.31992 13.6594 8.20242 13.4024 8.01969C13.1747 7.85774 12.9757 7.65875 12.8137 7.43099C12.631 7.174 12.5135 6.86849 12.2785 6.25747L10.8334 2.50008Z" stroke="white" stroke-width="1.66667" stroke-linecap="round" stroke-linejoin="round"/>
</g>
<defs>
<clipPath id="clip0_428_2667">
<rect width="20" height="20" fill="white"/>
</clipPath>
</defs>
</svg>
